<mxfile host="Electron" modified="2025-08-24T22:31:14.089Z" agent="Mozilla/5.0 (Windows NT 10.0; Win64; x64) AppleWebKit/537.36 (KHTML, like Gecko) draw.io/24.4.8 Chrome/124.0.6367.207 Electron/30.0.6 Safari/537.36" etag="x9t4t7XKDuwaQMK9xGtA" version="24.4.8" type="device">
  <diagram name="Page-1" id="lmv7f6WhMJnBUnH0ad_e">
    <mxGraphModel dx="1098" dy="1188" grid="1" gridSize="10" guides="1" tooltips="1" connect="1" arrows="1" fold="1" page="1" pageScale="1" pageWidth="850" pageHeight="1100" math="0" shadow="0">
      <root>
        <mxCell id="0" />
        <mxCell id="1" parent="0" />
        <mxCell id="QESxKMJvNthO_rB10rwq-13" value="" style="rounded=1;whiteSpace=wrap;html=1;fillColor=#dae8fc;strokeColor=#6c8ebf;" vertex="1" parent="1">
          <mxGeometry x="215" y="380" width="570" height="200" as="geometry" />
        </mxCell>
        <mxCell id="QESxKMJvNthO_rB10rwq-1" value="Client" style="ellipse;whiteSpace=wrap;html=1;aspect=fixed;fillColor=#d5e8d4;strokeColor=#82b366;" vertex="1" parent="1">
          <mxGeometry x="10" y="440" width="80" height="80" as="geometry" />
        </mxCell>
        <mxCell id="QESxKMJvNthO_rB10rwq-10" style="edgeStyle=orthogonalEdgeStyle;rounded=0;orthogonalLoop=1;jettySize=auto;html=1;entryX=0;entryY=0.5;entryDx=0;entryDy=0;" edge="1" parent="1" source="QESxKMJvNthO_rB10rwq-2" target="QESxKMJvNthO_rB10rwq-3">
          <mxGeometry relative="1" as="geometry" />
        </mxCell>
        <mxCell id="QESxKMJvNthO_rB10rwq-2" value="Controller" style="rounded=1;whiteSpace=wrap;html=1;fillColor=#1ba1e2;strokeColor=#006EAF;fontColor=#ffffff;" vertex="1" parent="1">
          <mxGeometry x="240" y="450" width="120" height="60" as="geometry" />
        </mxCell>
        <mxCell id="QESxKMJvNthO_rB10rwq-11" style="edgeStyle=orthogonalEdgeStyle;rounded=0;orthogonalLoop=1;jettySize=auto;html=1;" edge="1" parent="1" source="QESxKMJvNthO_rB10rwq-3" target="QESxKMJvNthO_rB10rwq-4">
          <mxGeometry relative="1" as="geometry" />
        </mxCell>
        <mxCell id="QESxKMJvNthO_rB10rwq-3" value="Service" style="rounded=1;whiteSpace=wrap;html=1;fillColor=#1ba1e2;fontColor=#ffffff;strokeColor=#006EAF;" vertex="1" parent="1">
          <mxGeometry x="440" y="450" width="120" height="60" as="geometry" />
        </mxCell>
        <mxCell id="QESxKMJvNthO_rB10rwq-12" style="edgeStyle=orthogonalEdgeStyle;rounded=0;orthogonalLoop=1;jettySize=auto;html=1;" edge="1" parent="1" source="QESxKMJvNthO_rB10rwq-4" target="QESxKMJvNthO_rB10rwq-6">
          <mxGeometry relative="1" as="geometry" />
        </mxCell>
        <mxCell id="QESxKMJvNthO_rB10rwq-4" value="Repository" style="rounded=1;whiteSpace=wrap;html=1;fillColor=#1ba1e2;fontColor=#ffffff;strokeColor=#006EAF;" vertex="1" parent="1">
          <mxGeometry x="640" y="450" width="120" height="60" as="geometry" />
        </mxCell>
        <mxCell id="QESxKMJvNthO_rB10rwq-6" value="DB" style="shape=cylinder3;whiteSpace=wrap;html=1;boundedLbl=1;backgroundOutline=1;size=15;fillColor=#ffe6cc;strokeColor=#d79b00;" vertex="1" parent="1">
          <mxGeometry x="670" y="620" width="60" height="80" as="geometry" />
        </mxCell>
        <mxCell id="QESxKMJvNthO_rB10rwq-7" value="" style="endArrow=classic;html=1;rounded=0;exitX=1;exitY=0.5;exitDx=0;exitDy=0;entryX=0;entryY=0.5;entryDx=0;entryDy=0;" edge="1" parent="1" source="QESxKMJvNthO_rB10rwq-1" target="QESxKMJvNthO_rB10rwq-2">
          <mxGeometry width="50" height="50" relative="1" as="geometry">
            <mxPoint x="510" y="630" as="sourcePoint" />
            <mxPoint x="560" y="580" as="targetPoint" />
          </mxGeometry>
        </mxCell>
        <mxCell id="QESxKMJvNthO_rB10rwq-9" value="HTTP" style="text;html=1;align=center;verticalAlign=middle;whiteSpace=wrap;rounded=0;" vertex="1" parent="1">
          <mxGeometry x="140" y="450" width="60" height="30" as="geometry" />
        </mxCell>
        <mxCell id="QESxKMJvNthO_rB10rwq-14" value="VarejoAPI" style="text;html=1;align=center;verticalAlign=middle;whiteSpace=wrap;rounded=0;" vertex="1" parent="1">
          <mxGeometry x="470" y="390" width="60" height="30" as="geometry" />
        </mxCell>
      </root>
    </mxGraphModel>
  </diagram>
</mxfile>
